<svg xmlns="http://www.w3.org/2000/svg" width="19" height="22" viewBox="0 0 19 22">
    <g fill="none" fill-rule="evenodd">
        <g fill="#FFF" fill-rule="nonzero">
            <g>
                <g>
                    <path d="M11.742 0c.115-.005.23.02.332.07.07.034.133.08.189.137l3.16 3.2 2.373 2.398c.13.129.204.306.204.49l-.001.01V18.9c0 1.16-.93 2.1-2.077 2.1H2.077C.93 21 0 20.06 0 18.9V2.1C0 .942.93 0 2.077 0h9.665zm-.666 1.4h-9c-.382 0-.691.314-.691.7v16.8c0 .387.31.7.692.7h13.845c.382 0 .692-.313.692-.7V7h-4.846c-.334 0-.62-.24-.68-.573l-.012-.126V1.4zm1.385.99V5.6h3.173l-1.072-1.084-2.101-2.125z" transform="translate(-575 -667) translate(553 657) translate(22.2 10.2)"/>
                    <path d="M11.768 16.8c.359 0 .659.276.691.637.032.361-.213.687-.566.752l-.125.011H3.461c-.358 0-.658-.276-.69-.637-.033-.36.213-.687.566-.752l.124-.01h8.307z" transform="translate(-575 -667) translate(553 657) translate(22.2 10.2)"/>
                </g>
            </g>
        </g>
    </g>
</svg>
