<svg xmlns="http://www.w3.org/2000/svg" width="36" height="36" viewBox="0 0 36 36">
    <g fill="none" fill-rule="evenodd">
        <g fill="#61646C" fill-rule="nonzero">
            <g>
                <g>
                    <path d="M17.96.026C8.16-.076.133 8.008.025 18.088c.038 7.848 4.99 14.777 12.261 17.156.897.167 1.223-.386 1.223-.872v-3.07c-4.989 1.09-6.049-2.414-6.049-2.414-.332-1.1-1.038-2.041-1.989-2.65-1.63-1.107.13-1.09.13-1.09 1.142.157 2.151.843 2.74 1.861 1.052 1.878 3.373 2.542 5.217 1.493.091-.918.496-1.774 1.141-2.415-3.978-.453-8.152-1.996-8.152-8.922-.035-1.806.614-3.556 1.81-4.88-.545-1.55-.48-3.26.18-4.763 0 0 1.516-.486 4.89 1.845 2.939-.805 6.03-.805 8.968 0 3.424-2.33 4.891-1.845 4.891-1.845.66 1.504.725 3.212.18 4.763 1.224 1.3 1.908 3.038 1.907 4.847 0 6.943-4.206 8.469-8.152 8.922.875.873 1.324 2.104 1.223 3.354v4.947c0 .587.326 1.056 1.223.872 7.25-2.393 12.183-9.308 12.228-17.14C35.788 8.008 27.76-.075 17.96.028" transform="translate(-411 -6537) translate(116 6335) translate(295 202)"/>
                </g>
            </g>
        </g>
    </g>
</svg>
