<svg xmlns="http://www.w3.org/2000/svg" width="36" height="36" viewBox="0 0 36 36">
    <g fill="none" fill-rule="evenodd">
        <g>
            <g>
                <g transform="translate(-1221 -6597) translate(926 6395) translate(295 202)">
                    <circle cx="18" cy="18" r="18" fill="#61646C"/>
                    <g fill="#1D212E" fill-rule="nonzero">
                        <path d="M4.317 5.849V18H.235V5.849h4.082zm.26-3.752c.008.596-.2 1.095-.625 1.496-.425.4-.983.6-1.676.6h-.025c-.676 0-1.22-.2-1.633-.6-.412-.4-.618-.9-.618-1.496C0 1.492.212.99.637.595 1.062.198 1.617 0 2.301 0c.684 0 1.233.198 1.645.595.412.396.623.897.63 1.502zM19 11.035V18h-4.07v-6.499c0-.858-.167-1.53-.5-2.017-.335-.486-.856-.73-1.565-.73-.52 0-.955.142-1.305.424-.35.282-.613.631-.786 1.048-.09.245-.136.576-.136.993V18h-4.07c.017-3.262.025-5.906.025-7.933s-.004-3.237-.012-3.63l-.013-.588h4.07v1.765h-.025c.165-.261.334-.49.507-.686.174-.196.407-.409.7-.638.292-.229.65-.406 1.076-.533.424-.127.896-.19 1.416-.19 1.41 0 2.544.464 3.402 1.391C18.57 7.886 19 9.245 19 11.035z" transform="translate(9 8)"/>
                    </g>
                </g>
            </g>
        </g>
    </g>
</svg>
