<svg xmlns="http://www.w3.org/2000/svg" width="24" height="20" viewBox="0 0 24 20">
    <g fill="none" fill-rule="evenodd" opacity=".9">
        <g fill="#FFF" fill-rule="nonzero">
            <g>
                <path d="M21.163 5.682v-.614c.95-.727 1.752-1.621 2.366-2.636-.892.416-1.852.676-2.836.767 1.018-.673 1.791-1.645 2.209-2.776-.98.585-2.047 1.017-3.163 1.28C18.934.612 17.635-.025 16.26 0c-2.726.035-4.91 2.22-4.888 4.887-.032.433.021.867.156 1.28C7.527 5.835 3.856 3.859 1.425.73c-.397.767-.616 1.61-.64 2.47-.071 1.723.768 3.362 2.222 4.337-.775-.039-1.53-.249-2.21-.614-.048 2.385 1.57 4.496 3.922 5.118-.424.123-.866.175-1.307.154-.322.023-.645-.03-.941-.154.553 2.045 2.414 3.492 4.575 3.557-1.674 1.344-3.77 2.081-5.935 2.086H0C2.127 19.159 4.662 19.966 7.268 20c8.993.05 13.895-7.677 13.895-14.318z" transform="translate(-1303 -105) translate(1303 105)"/>
            </g>
        </g>
    </g>
</svg>
