<svg xmlns="http://www.w3.org/2000/svg" width="57" height="57" viewBox="0 0 57 57">
    <defs>
        <linearGradient id="gpdxty6z8a" x1="0%" x2="100%" y1="100%" y2="0%">
            <stop offset="0%" stop-color="#5C00EB"/>
            <stop offset="100%" stop-color="#63A3DE"/>
        </linearGradient>
    </defs>
    <g fill="none" fill-rule="evenodd">
        <g>
            <g transform="translate(-184 -7444) translate(185 7445)">
                <circle cx="27.3" cy="27.3" r="27.3" stroke="url(#gpdxty6z8a)" stroke-width="1.4"/>
                <g fill="#FFF" fill-rule="nonzero" opacity=".9">
                    <path d="M27.2 7.46v-.806c1.22-.954 2.25-2.128 3.04-3.461-1.147.547-2.38.888-3.646 1.008 1.309-.884 2.303-2.16 2.84-3.646-1.26.768-2.632 1.335-4.066 1.68C24.334.804 22.665-.03 20.899.001c-3.503.046-6.311 2.914-6.283 6.417-.04.568.028 1.138.202 1.68C9.674 7.661 4.956 5.067 1.83.958c-.51 1.007-.791 2.115-.823 3.243-.09 2.263.988 4.414 2.856 5.695-.995-.051-1.966-.327-2.84-.806-.061 3.131 2.017 5.903 5.04 6.72-.544.161-1.112.23-1.68.201-.413.032-.828-.038-1.209-.201.712 2.685 3.103 4.585 5.88 4.67-2.15 1.765-4.845 2.733-7.627 2.738H0c2.734 1.937 5.991 2.998 9.34 3.041C20.9 26.326 27.2 16.18 27.2 7.46z" transform="translate(12.88 14.56)"/>
                </g>
            </g>
        </g>
    </g>
</svg>
