<svg xmlns="http://www.w3.org/2000/svg" width="24" height="20" viewBox="0 0 24 20">
    <g fill="none" fill-rule="evenodd" opacity=".902">
        <g fill="#FFF" fill-rule="nonzero">
            <g>
                <path d="M21.788.197L.885 8.317s-1.016.284-.87.996c.144.57.87.855.87.855l5.226 1.71 12.628-7.835s.726-.427.726 0c0 0 .145.143-.29.427-.29.285-9.87 8.69-9.87 8.69v.142l-.581 5.697c.29.143.58-.142.58-.142l3.339-2.991 5.225 3.988c1.452.57 1.887-.712 1.887-.712L23.53.767c0-1.282-1.741-.57-1.741-.57z" transform="translate(-1246 -104) translate(1246 104)"/>
            </g>
        </g>
    </g>
</svg>
