<svg xmlns="http://www.w3.org/2000/svg" width="57" height="57" viewBox="0 0 57 57">
    <defs>
        <linearGradient id="qi75efzpma" x1="0%" x2="100%" y1="100%" y2="0%">
            <stop offset="0%" stop-color="#5C00EB"/>
            <stop offset="100%" stop-color="#63A3DE"/>
        </linearGradient>
    </defs>
    <g fill="none" fill-rule="evenodd">
        <g>
            <g transform="translate(-323 -7444) translate(324 7445)">
                <circle cx="27.3" cy="27.3" r="27.3" stroke="url(#qi75efzpma)" stroke-width="1.4"/>
                <g fill="#FFF" fill-rule="nonzero" opacity=".9">
                    <path d="M14.238 28.477c-4.485 0-8.002-6.251-8.002-14.239C6.236 6.251 9.753 0 14.238 0c4.485 0 8.016 6.25 8.016 14.238-.014 7.988-3.53 14.239-8.016 14.239zm0-26.697c-3.374 0-6.222 5.71-6.222 12.458 0 6.75 2.848 12.459 6.222 12.459 3.375 0 6.237-5.71 6.237-12.459S17.613 1.78 14.238 1.78z" transform="translate(13 13)"/>
                    <path d="M14.238 28.477c-4.243 0-8.23-1.866-10.949-5.14l-.64-.77.854-.54c2.69-1.723 6.606-2.706 10.735-2.706 4.144 0 8.06.983 10.736 2.706l.854.54-.64.77c-2.72 3.274-6.707 5.14-10.95 5.14zm-8.856-5.482c2.335 2.363 5.51 3.702 8.856 3.702s6.521-1.339 8.856-3.702c-2.349-1.21-5.51-1.894-8.856-1.894s-6.507.684-8.856 1.894zM14.238 9.61c-4.3 0-8.3-1.054-10.992-2.876l-.797-.541.584-.755C5.767 1.979 9.839 0 14.238 0c4.4 0 8.472 1.98 11.192 5.439l.583.755-.797.54c-2.677 1.823-6.678 2.877-10.978 2.877zm-9.14-3.83c2.363 1.31 5.638 2.05 9.14 2.05 3.503 0 6.778-.74 9.141-2.05-2.35-2.549-5.638-4.001-9.14-4.001-3.503 0-6.792 1.452-9.142 4z" transform="translate(13 13)"/>
                    <path d="M3.787 23.949l-.498-.598C1.168 20.788 0 17.556 0 14.238 0 11.02 1.054 7.973 3.047 5.44l.513-.655.683.47C6.649 6.89 10.294 7.83 14.238 7.83c3.944 0 7.59-.94 9.996-2.563l.683-.47.513.655c1.993 2.52 3.047 5.567 3.047 8.785 0 3.318-1.168 6.55-3.29 9.099l-.498.598-.655-.428c-2.406-1.537-5.966-2.42-9.781-2.42-3.816 0-7.376.883-9.782 2.42l-.684.442zm10.451-4.628c3.802 0 7.404.826 10.038 2.293 1.566-2.122 2.42-4.713 2.42-7.376 0-2.548-.754-4.969-2.192-7.048-2.662 1.552-6.35 2.42-10.266 2.42-3.915 0-7.603-.868-10.266-2.42-1.438 2.08-2.192 4.5-2.192 7.048 0 2.649.854 5.24 2.42 7.376 2.634-1.467 6.237-2.293 10.038-2.293z" transform="translate(13 13)"/>
                    <path d="M13.341 0.883L15.121 0.883 15.121 27.58 13.341 27.58z" transform="translate(13 13)"/>
                    <path d="M0.897 13.341L27.594 13.341 27.594 15.121 0.897 15.121z" transform="translate(13 13)"/>
                </g>
            </g>
        </g>
    </g>
</svg>
